<mxfile host="app.diagrams.net" modified="2023-05-22T02:14:25.539Z" agent="Mozilla/5.0 (Windows NT 10.0; Win64; x64) AppleWebKit/537.36 (KHTML, like Gecko) Chrome/111.0.0.0 Safari/537.36" version="21.3.2" etag="gRA6TMk5gLSn1MBc5mnX" type="github">
  <diagram name="Page-1" id="cAxqLfPbb5MWMib8hpZx">
    <mxGraphModel>
      <root>
        <mxCell id="0" />
        <mxCell id="1" parent="0" />
      </root>
    </mxGraphModel>
  </diagram>
</mxfile>
